<svg width="154" height="32" viewBox="0 0 154 32" fill="none" xmlns="http://www.w3.org/2000/svg">
<g clip-path="url(#clip0_1_2)">
<path d="M0 8.42105C0 3.77023 3.77023 0 8.42105 0H23.5789C28.2298 0 32 3.77023 32 8.42105V23.5789C32 28.2298 28.2298 32 23.5789 32H8.42105C3.77023 32 0 28.2298 0 23.5789V8.42105Z" fill="#465FFF"/>
<g filter="url(#filter0_d_1_2)">
<path d="M8.42383 8.42152C8.42383 7.49135 9.17787 6.7373 10.108 6.7373C11.0382 6.7373 11.7922 7.49135 11.7922 8.42152V23.5794C11.7922 24.5096 11.0382 25.2636 10.108 25.2636C9.17787 25.2636 8.42383 24.5096 8.42383 23.5794V8.42152Z" fill="white"/>
</g>
<g filter="url(#filter1_d_1_2)">
<path d="M14.7422 15.1569C14.7422 14.2267 15.4962 13.4727 16.4264 13.4727C17.3566 13.4727 18.1106 14.2267 18.1106 15.1569V23.5779C18.1106 24.5081 17.3566 25.2621 16.4264 25.2621C15.4962 25.2621 14.7422 24.5081 14.7422 23.5779V15.1569Z" fill="white" fill-opacity="0.9"/>
</g>
<g filter="url(#filter2_d_1_2)">
<path d="M21.0547 10.9459C21.0547 10.0158 21.8087 9.26172 22.7389 9.26172C23.6691 9.26172 24.4231 10.0158 24.4231 10.9459V23.5775C24.4231 24.5077 23.6691 25.2617 22.7389 25.2617C21.8087 25.2617 21.0547 24.5077 21.0547 23.5775V10.9459Z" fill="white" fill-opacity="0.7"/>
</g>
<path d="M54.098 15.5469H50.9872C50.9304 15.1444 50.8144 14.7869 50.6392 14.4744C50.464 14.1572 50.2391 13.8873 49.9645 13.6648C49.6899 13.4422 49.3726 13.2718 49.0128 13.1534C48.6577 13.035 48.2718 12.9759 47.8551 12.9759C47.1023 12.9759 46.4465 13.1629 45.8878 13.5369C45.3291 13.9062 44.8958 14.446 44.5881 15.1562C44.2803 15.8617 44.1264 16.7187 44.1264 17.7273C44.1264 18.7642 44.2803 19.6354 44.5881 20.3409C44.9006 21.0464 45.3362 21.5791 45.8949 21.9389C46.4536 22.2988 47.0999 22.4787 47.8338 22.4787C48.2457 22.4787 48.6269 22.4242 48.9773 22.3153C49.3324 22.2064 49.6473 22.0478 49.9219 21.8395C50.1965 21.6264 50.4238 21.3684 50.6037 21.0653C50.7884 20.7623 50.9162 20.4167 50.9872 20.0284L54.098 20.0426C54.0175 20.7102 53.8163 21.3542 53.4943 21.9744C53.1771 22.59 52.7486 23.1416 52.2088 23.6293C51.6738 24.1122 51.0346 24.4957 50.2912 24.7798C49.5526 25.0592 48.7169 25.1989 47.7841 25.1989C46.4867 25.1989 45.3267 24.9053 44.304 24.3182C43.286 23.7311 42.4811 22.8812 41.8892 21.7685C41.3021 20.6558 41.0085 19.3087 41.0085 17.7273C41.0085 16.1411 41.3068 14.7917 41.9034 13.679C42.5 12.5663 43.3097 11.7187 44.3324 11.1364C45.3551 10.5492 46.5057 10.2557 47.7841 10.2557C48.6269 10.2557 49.4081 10.3741 50.1278 10.6108C50.8523 10.8475 51.4938 11.1932 52.0526 11.6477C52.6113 12.0975 53.0658 12.6491 53.4162 13.3026C53.7713 13.956 53.9986 14.7041 54.098 15.5469ZM59.3572 25.206C58.6612 25.206 58.041 25.0852 57.4964 24.8438C56.9519 24.5975 56.5211 24.2353 56.2038 23.7571C55.8913 23.2741 55.7351 22.6728 55.7351 21.9531C55.7351 21.3471 55.8464 20.8381 56.0689 20.4261C56.2914 20.0142 56.5945 19.6828 56.978 19.4318C57.3615 19.1809 57.7971 18.9915 58.2848 18.8636C58.7772 18.7358 59.2933 18.6458 59.8331 18.5938C60.4676 18.5275 60.9789 18.4659 61.3672 18.4091C61.7554 18.3475 62.0372 18.2576 62.2124 18.1392C62.3875 18.0208 62.4751 17.8456 62.4751 17.6136V17.571C62.4751 17.1212 62.3331 16.7732 62.049 16.527C61.7696 16.2808 61.3719 16.1577 60.8558 16.1577C60.3113 16.1577 59.8781 16.2784 59.5561 16.5199C59.2341 16.7566 59.0211 17.0549 58.9169 17.4148L56.1186 17.1875C56.2607 16.5246 56.54 15.9517 56.9567 15.4688C57.3733 14.9811 57.9107 14.607 58.5689 14.3466C59.2318 14.0814 59.9988 13.9489 60.87 13.9489C61.4761 13.9489 62.0561 14.0199 62.6101 14.1619C63.1688 14.304 63.6636 14.5241 64.0945 14.8224C64.5301 15.1207 64.8733 15.5043 65.1243 15.973C65.3752 16.437 65.5007 16.9934 65.5007 17.642V25H62.6314V23.4872H62.5462C62.371 23.8281 62.1366 24.1288 61.843 24.3892C61.5495 24.6449 61.1967 24.8461 60.7848 24.9929C60.3729 25.1349 59.897 25.206 59.3572 25.206ZM60.2237 23.1179C60.6688 23.1179 61.0618 23.0303 61.4027 22.8551C61.7436 22.6752 62.0111 22.4337 62.2053 22.1307C62.3994 21.8277 62.4964 21.4844 62.4964 21.1009V19.9432C62.4018 20.0047 62.2715 20.0616 62.1058 20.1136C61.9448 20.161 61.7625 20.206 61.5589 20.2486C61.3554 20.2865 61.1518 20.322 60.9482 20.3551C60.7446 20.3835 60.5599 20.4096 60.3942 20.4332C60.0391 20.4853 59.7289 20.5682 59.4638 20.6818C59.1986 20.7955 58.9927 20.9493 58.8459 21.1435C58.6991 21.3329 58.6257 21.5696 58.6257 21.8537C58.6257 22.2656 58.7749 22.5805 59.0732 22.7983C59.3762 23.0114 59.7597 23.1179 60.2237 23.1179ZM70.8736 10.4545V25H67.848V10.4545H70.8736ZM76.3228 10.4545V25H73.2972V10.4545H76.3228ZM78.8033 25V10.4545H81.8786V22.4645H88.1143V25H78.8033ZM95.0231 25.2131C93.9199 25.2131 92.9658 24.9787 92.1609 24.5099C91.3607 24.0365 90.7428 23.3783 90.3072 22.5355C89.8716 21.688 89.6538 20.7055 89.6538 19.5881C89.6538 18.4612 89.8716 17.4763 90.3072 16.6335C90.7428 15.786 91.3607 15.1278 92.1609 14.6591C92.9658 14.1856 93.9199 13.9489 95.0231 13.9489C96.1263 13.9489 97.078 14.1856 97.8782 14.6591C98.6831 15.1278 99.3034 15.786 99.739 16.6335C100.175 17.4763 100.392 18.4612 100.392 19.5881C100.392 20.7055 100.175 21.688 99.739 22.5355C99.3034 23.3783 98.6831 24.0365 97.8782 24.5099C97.078 24.9787 96.1263 25.2131 95.0231 25.2131ZM95.0373 22.8693C95.5392 22.8693 95.9582 22.7273 96.2944 22.4432C96.6306 22.1544 96.8839 21.7614 97.0543 21.2642C97.2295 20.767 97.3171 20.2012 97.3171 19.5668C97.3171 18.9323 97.2295 18.3665 97.0543 17.8693C96.8839 17.3722 96.6306 16.9792 96.2944 16.6903C95.9582 16.4015 95.5392 16.2571 95.0373 16.2571C94.5307 16.2571 94.1045 16.4015 93.7589 16.6903C93.418 16.9792 93.1599 17.3722 92.9847 17.8693C92.8143 18.3665 92.729 18.9323 92.729 19.5668C92.729 20.2012 92.8143 20.767 92.9847 21.2642C93.1599 21.7614 93.418 22.1544 93.7589 22.4432C94.1045 22.7273 94.5307 22.8693 95.0373 22.8693ZM107.275 29.3182C106.294 29.3182 105.454 29.1832 104.753 28.9134C104.057 28.6482 103.503 28.286 103.091 27.8267C102.679 27.3674 102.412 26.8513 102.289 26.2784L105.087 25.902C105.172 26.1198 105.307 26.3234 105.492 26.5128C105.676 26.7022 105.92 26.8537 106.223 26.9673C106.531 27.0857 106.905 27.1449 107.346 27.1449C108.004 27.1449 108.546 26.9839 108.972 26.6619C109.403 26.3447 109.618 25.812 109.618 25.0639V23.0682H109.49C109.358 23.3712 109.159 23.6577 108.894 23.9276C108.629 24.1974 108.288 24.4176 107.871 24.5881C107.454 24.7585 106.957 24.8438 106.38 24.8438C105.56 24.8438 104.815 24.6544 104.142 24.2756C103.475 23.892 102.942 23.3073 102.544 22.5213C102.151 21.7306 101.955 20.7315 101.955 19.5241C101.955 18.2884 102.156 17.2562 102.559 16.4276C102.961 15.599 103.496 14.9787 104.164 14.5668C104.836 14.1548 105.572 13.9489 106.373 13.9489C106.983 13.9489 107.495 14.053 107.907 14.2614C108.319 14.465 108.65 14.7206 108.901 15.0284C109.157 15.3314 109.353 15.6297 109.49 15.9233H109.604V14.0909H112.608V25.1065C112.608 26.0346 112.381 26.8111 111.926 27.4361C111.472 28.0611 110.842 28.5298 110.037 28.8423C109.237 29.1596 108.316 29.3182 107.275 29.3182ZM107.338 22.571C107.826 22.571 108.238 22.4503 108.574 22.2088C108.915 21.9626 109.176 21.6122 109.355 21.1577C109.54 20.6984 109.632 20.1491 109.632 19.5099C109.632 18.8707 109.542 18.3168 109.363 17.848C109.183 17.3745 108.922 17.0076 108.581 16.7472C108.24 16.4867 107.826 16.3565 107.338 16.3565C106.841 16.3565 106.422 16.4915 106.081 16.7614C105.74 17.0265 105.482 17.3958 105.307 17.8693C105.132 18.3428 105.044 18.8897 105.044 19.5099C105.044 20.1397 105.132 20.6842 105.307 21.1435C105.487 21.598 105.745 21.9508 106.081 22.2017C106.422 22.4479 106.841 22.571 107.338 22.571ZM117.58 25H114.284L119.306 10.4545H123.269L128.283 25H124.988L121.344 13.7784H121.23L117.58 25ZM117.374 19.2827H125.158V21.6832H117.374V19.2827ZM129.977 29.0909V14.0909H132.96V15.9233H133.095C133.227 15.6297 133.419 15.3314 133.67 15.0284C133.926 14.7206 134.257 14.465 134.664 14.2614C135.076 14.053 135.588 13.9489 136.199 13.9489C136.994 13.9489 137.728 14.1572 138.4 14.5739C139.073 14.9858 139.61 15.6084 140.012 16.4418C140.415 17.2704 140.616 18.3097 140.616 19.5597C140.616 20.7765 140.42 21.804 140.027 22.642C139.638 23.4754 139.108 24.1075 138.436 24.5384C137.768 24.9645 137.02 25.1776 136.191 25.1776C135.604 25.1776 135.105 25.0805 134.693 24.8864C134.286 24.6922 133.952 24.4484 133.691 24.1548C133.431 23.8565 133.232 23.5559 133.095 23.2528H133.002V29.0909H129.977ZM132.939 19.5455C132.939 20.1941 133.029 20.7599 133.208 21.2429C133.388 21.7259 133.649 22.1023 133.99 22.3722C134.331 22.6373 134.745 22.7699 135.233 22.7699C135.725 22.7699 136.142 22.6349 136.483 22.3651C136.824 22.0904 137.082 21.7116 137.257 21.2287C137.437 20.741 137.527 20.1799 137.527 19.5455C137.527 18.9157 137.439 18.3617 137.264 17.8835C137.089 17.4053 136.831 17.0312 136.49 16.7614C136.149 16.4915 135.73 16.3565 135.233 16.3565C134.74 16.3565 134.324 16.4867 133.983 16.7472C133.646 17.0076 133.388 17.3769 133.208 17.8551C133.029 18.3333 132.939 18.8968 132.939 19.5455ZM142.633 29.0909V14.0909H145.616V15.9233H145.751C145.884 15.6297 146.075 15.3314 146.326 15.0284C146.582 14.7206 146.913 14.465 147.321 14.2614C147.733 14.053 148.244 13.9489 148.855 13.9489C149.65 13.9489 150.384 14.1572 151.056 14.5739C151.729 14.9858 152.266 15.6084 152.669 16.4418C153.071 17.2704 153.272 18.3097 153.272 19.5597C153.272 20.7765 153.076 21.804 152.683 22.642C152.295 23.4754 151.764 24.1075 151.092 24.5384C150.424 24.9645 149.676 25.1776 148.848 25.1776C148.261 25.1776 147.761 25.0805 147.349 24.8864C146.942 24.6922 146.608 24.4484 146.348 24.1548C146.087 23.8565 145.888 23.5559 145.751 23.2528H145.659V29.0909H142.633ZM145.595 19.5455C145.595 20.1941 145.685 20.7599 145.865 21.2429C146.045 21.7259 146.305 22.1023 146.646 22.3722C146.987 22.6373 147.401 22.7699 147.889 22.7699C148.381 22.7699 148.798 22.6349 149.139 22.3651C149.48 22.0904 149.738 21.7116 149.913 21.2287C150.093 20.741 150.183 20.1799 150.183 19.5455C150.183 18.9157 150.095 18.3617 149.92 17.8835C149.745 17.4053 149.487 17.0312 149.146 16.7614C148.805 16.4915 148.386 16.3565 147.889 16.3565C147.396 16.3565 146.98 16.4867 146.639 16.7472C146.303 17.0076 146.045 17.3769 145.865 17.8551C145.685 18.3333 145.595 18.8968 145.595 19.5455Z" fill="#161616"/>
</g>
<defs>
<filter id="filter0_d_1_2" x="7.42383" y="6.2373" width="5.36837" height="20.5263" filterUnits="userSpaceOnUse" color-interpolation-filters="sRGB">
<feFlood flood-opacity="0" result="BackgroundImageFix"/>
<feColorMatrix in="SourceAlpha" type="matrix" values="0 0 0 0 0 0 0 0 0 0 0 0 0 0 0 0 0 0 127 0" result="hardAlpha"/>
<feOffset dy="0.5"/>
<feGaussianBlur stdDeviation="0.5"/>
<feComposite in2="hardAlpha" operator="out"/>
<feColorMatrix type="matrix" values="0 0 0 0 0 0 0 0 0 0 0 0 0 0 0 0 0 0 0.12 0"/>
<feBlend mode="normal" in2="BackgroundImageFix" result="effect1_dropShadow_1_2"/>
<feBlend mode="normal" in="SourceGraphic" in2="effect1_dropShadow_1_2" result="shape"/>
</filter>
<filter id="filter1_d_1_2" x="13.7422" y="12.9727" width="5.3684" height="13.7894" filterUnits="userSpaceOnUse" color-interpolation-filters="sRGB">
<feFlood flood-opacity="0" result="BackgroundImageFix"/>
<feColorMatrix in="SourceAlpha" type="matrix" values="0 0 0 0 0 0 0 0 0 0 0 0 0 0 0 0 0 0 127 0" result="hardAlpha"/>
<feOffset dy="0.5"/>
<feGaussianBlur stdDeviation="0.5"/>
<feComposite in2="hardAlpha" operator="out"/>
<feColorMatrix type="matrix" values="0 0 0 0 0 0 0 0 0 0 0 0 0 0 0 0 0 0 0.12 0"/>
<feBlend mode="normal" in2="BackgroundImageFix" result="effect1_dropShadow_1_2"/>
<feBlend mode="normal" in="SourceGraphic" in2="effect1_dropShadow_1_2" result="shape"/>
</filter>
<filter id="filter2_d_1_2" x="20.0547" y="8.76172" width="5.3684" height="18" filterUnits="userSpaceOnUse" color-interpolation-filters="sRGB">
<feFlood flood-opacity="0" result="BackgroundImageFix"/>
<feColorMatrix in="SourceAlpha" type="matrix" values="0 0 0 0 0 0 0 0 0 0 0 0 0 0 0 0 0 0 127 0" result="hardAlpha"/>
<feOffset dy="0.5"/>
<feGaussianBlur stdDeviation="0.5"/>
<feComposite in2="hardAlpha" operator="out"/>
<feColorMatrix type="matrix" values="0 0 0 0 0 0 0 0 0 0 0 0 0 0 0 0 0 0 0.12 0"/>
<feBlend mode="normal" in2="BackgroundImageFix" result="effect1_dropShadow_1_2"/>
<feBlend mode="normal" in="SourceGraphic" in2="effect1_dropShadow_1_2" result="shape"/>
</filter>
<clipPath id="clip0_1_2">
<rect width="154" height="32" fill="white"/>
</clipPath>
</defs>
</svg>
